<svg width="456" height="456" viewBox="0 0 456 456" fill="none" xmlns="http://www.w3.org/2000/svg">
<g clip-path="url(#clip0_423_1839)">
<path d="M284.25 178V278C284.25 281.315 282.933 284.495 280.589 286.839C278.245 289.183 275.065 290.5 271.75 290.5H259.25C255.935 290.5 252.755 289.183 250.411 286.839C248.067 284.495 246.75 281.315 246.75 278V234.25H209.25V278C209.25 281.315 207.933 284.495 205.589 286.839C203.245 289.183 200.065 290.5 196.75 290.5H184.25C180.935 290.5 177.755 289.183 175.411 286.839C173.067 284.495 171.75 281.315 171.75 278V178C171.75 174.685 173.067 171.505 175.411 169.161C177.755 166.817 180.935 165.5 184.25 165.5H196.75C200.065 165.5 203.245 166.817 205.589 169.161C207.933 171.505 209.25 174.685 209.25 178V221.75H246.75V178C246.75 174.685 248.067 171.505 250.411 169.161C252.755 166.817 255.935 165.5 259.25 165.5H271.75C275.065 165.5 278.245 166.817 280.589 169.161C282.933 171.505 284.25 174.685 284.25 178ZM156.125 184.25H153C149.685 184.25 146.505 185.567 144.161 187.911C141.817 190.255 140.5 193.435 140.5 196.75V221.75H134.461C132.846 221.726 131.282 222.315 130.083 223.398C128.884 224.48 128.14 225.977 128 227.586C127.943 228.441 128.063 229.298 128.351 230.105C128.64 230.912 129.091 231.651 129.677 232.276C130.264 232.9 130.972 233.398 131.759 233.738C132.545 234.078 133.393 234.252 134.25 234.25H140.5V259.25C140.5 262.565 141.817 265.745 144.161 268.089C146.505 270.433 149.685 271.75 153 271.75H156.125C156.954 271.75 157.749 271.421 158.335 270.835C158.921 270.249 159.25 269.454 159.25 268.625V187.375C159.25 186.546 158.921 185.751 158.335 185.165C157.749 184.579 156.954 184.25 156.125 184.25ZM328 227.586C327.86 225.979 327.118 224.485 325.923 223.403C324.727 222.321 323.167 221.73 321.555 221.75H315.5V196.75C315.5 193.435 314.183 190.255 311.839 187.911C309.495 185.567 306.315 184.25 303 184.25H299.875C299.046 184.25 298.251 184.579 297.665 185.165C297.079 185.751 296.75 186.546 296.75 187.375V268.625C296.75 269.454 297.079 270.249 297.665 270.835C298.251 271.421 299.046 271.75 299.875 271.75H303C306.315 271.75 309.495 270.433 311.839 268.089C314.183 265.745 315.5 262.565 315.5 259.25V234.25H321.75C322.607 234.252 323.455 234.078 324.241 233.738C325.028 233.398 325.736 232.9 326.323 232.276C326.909 231.651 327.36 230.912 327.649 230.105C327.937 229.298 328.057 228.441 328 227.586Z" fill="white"/>
</g>
<defs>
<clipPath id="clip0_423_1839">
<rect width="200" height="200" fill="white" transform="translate(128 128)"/>
</clipPath>
</defs>
</svg>
