<svg width="456" height="456" viewBox="0 0 456 456" fill="none" xmlns="http://www.w3.org/2000/svg">
<path d="M129.663 208H165.514C166.011 208 166.412 208.152 166.718 208.457C167.024 208.761 167.177 209.161 167.177 209.656V216.108C167.177 216.603 167.024 217.003 166.718 217.307C166.412 217.612 166.011 217.764 165.514 217.764H139.357C138.898 217.764 138.516 217.917 138.21 218.221C137.942 218.488 137.809 218.849 137.809 219.306C137.809 219.763 137.942 220.143 138.21 220.448C138.516 220.714 138.898 220.848 139.357 220.848H165.514C166.011 220.848 166.412 221 166.718 221.305C167.024 221.609 167.177 222.009 167.177 222.504V245.287C167.177 245.782 167.024 246.182 166.718 246.486C166.412 246.791 166.011 246.943 165.514 246.943H129.721C129.224 246.943 128.822 246.791 128.516 246.486C128.21 246.182 128.057 245.782 128.057 245.287V238.835C128.057 238.34 128.21 237.94 128.516 237.635C128.822 237.331 129.224 237.179 129.721 237.179H155.648C156.145 237.179 156.546 237.026 156.852 236.722C157.158 236.417 157.311 236.018 157.311 235.523V232.382C157.311 231.887 157.158 231.488 156.852 231.183C156.546 230.878 156.145 230.726 155.648 230.726H129.663C129.166 230.726 128.765 230.574 128.459 230.269C128.153 229.965 128 229.565 128 229.07V209.656C128 209.161 128.153 208.761 128.459 208.457C128.765 208.152 129.166 208 129.663 208Z" fill="white"/>
<path d="M174.269 245.287V209.713C174.269 209.218 174.422 208.818 174.728 208.514C175.034 208.209 175.435 208.057 175.933 208.057H202.031C202.529 208.057 202.93 208.209 203.236 208.514C203.542 208.818 203.695 209.218 203.695 209.713V216.108C203.695 216.603 203.542 217.003 203.236 217.307C202.93 217.612 202.529 217.764 202.031 217.764H185.741C184.632 217.764 184.078 218.297 184.078 219.363C184.078 220.467 184.632 221.019 185.741 221.019H198.762C199.259 221.019 199.661 221.171 199.967 221.476C200.272 221.78 200.425 222.18 200.425 222.675V229.07C200.425 229.565 200.272 229.965 199.967 230.269C199.661 230.574 199.259 230.726 198.762 230.726H185.741C185.244 230.726 184.843 230.878 184.537 231.183C184.231 231.488 184.078 231.887 184.078 232.382V235.58C184.078 236.075 184.231 236.474 184.537 236.779C184.843 237.083 185.244 237.236 185.741 237.236H202.031C202.529 237.236 202.93 237.388 203.236 237.693C203.542 237.997 203.695 238.397 203.695 238.892V245.344C203.695 245.839 203.542 246.239 203.236 246.543C202.93 246.848 202.529 247 202.031 247L175.933 246.943C175.435 246.943 175.034 246.81 174.728 246.543C174.422 246.239 174.269 245.82 174.269 245.287Z" fill="white"/>
<path d="M207.95 216.051V209.656C207.95 209.161 208.103 208.761 208.409 208.457C208.715 208.152 209.117 208 209.614 208H242.137C242.634 208 243.036 208.152 243.342 208.457C243.648 208.761 243.801 209.161 243.801 209.656V216.051C243.801 216.546 243.648 216.946 243.342 217.25C243.036 217.555 242.634 217.707 242.137 217.707H232.558C232.061 217.707 231.659 217.859 231.353 218.164C231.047 218.469 230.894 218.868 230.894 219.363V245.287C230.894 245.782 230.741 246.182 230.436 246.486C230.13 246.791 229.728 246.943 229.231 246.943H222.635C222.137 246.943 221.736 246.791 221.43 246.486C221.124 246.182 220.971 245.782 220.971 245.287V219.363C220.971 218.868 220.818 218.469 220.512 218.164C220.206 217.859 219.805 217.707 219.308 217.707H209.614C209.117 217.707 208.715 217.555 208.409 217.25C208.103 216.946 207.95 216.546 207.95 216.051Z" fill="white"/>
<path d="M247.498 216.051V209.656C247.498 209.161 247.651 208.761 247.956 208.457C248.262 208.152 248.664 208 249.161 208H281.684C282.181 208 282.583 208.152 282.889 208.457C283.195 208.761 283.348 209.161 283.348 209.656V216.051C283.348 216.546 283.195 216.946 282.889 217.25C282.583 217.555 282.181 217.707 281.684 217.707H272.105C271.608 217.707 271.206 217.859 270.901 218.164C270.595 218.469 270.442 218.868 270.442 219.363V245.287C270.442 245.782 270.289 246.182 269.983 246.486C269.677 246.791 269.275 246.943 268.778 246.943H262.182C261.685 246.943 261.283 246.791 260.977 246.486C260.671 246.182 260.518 245.782 260.518 245.287V219.363C260.518 218.868 260.365 218.469 260.059 218.164C259.754 217.859 259.352 217.707 258.855 217.707H249.161C248.664 217.707 248.262 217.555 247.956 217.25C247.651 216.946 247.498 216.546 247.498 216.051Z" fill="white"/>
<path d="M288.766 245.23V209.656C288.766 209.161 288.919 208.761 289.224 208.457C289.53 208.152 289.932 208 290.429 208H326.337C326.834 208 327.235 208.152 327.541 208.457C327.847 208.761 328 209.161 328 209.656V245.287C328 245.782 327.847 246.182 327.541 246.486C327.235 246.791 326.834 246.943 326.337 246.943H319.74C319.243 246.943 318.841 246.791 318.536 246.486C318.23 246.182 318.077 245.782 318.077 245.287V242.146C318.077 241.652 317.924 241.252 317.618 240.947C317.312 240.643 316.91 240.49 316.413 240.49H300.295C299.798 240.49 299.396 240.643 299.09 240.947C298.785 241.252 298.632 241.652 298.632 242.146V245.23C298.632 245.725 298.479 246.124 298.173 246.429C297.867 246.734 297.465 246.886 296.968 246.886H290.429C289.932 246.886 289.53 246.734 289.224 246.429C288.919 246.124 288.766 245.725 288.766 245.23ZM300.295 230.669H316.413C316.91 230.669 317.312 230.517 317.618 230.212C317.924 229.908 318.077 229.508 318.077 229.013V219.363C318.077 218.868 317.924 218.469 317.618 218.164C317.312 217.859 316.91 217.707 316.413 217.707H300.295C299.798 217.707 299.396 217.859 299.09 218.164C298.785 218.469 298.632 218.868 298.632 219.363V229.013C298.632 229.508 298.785 229.908 299.09 230.212C299.396 230.517 299.798 230.669 300.295 230.669Z" fill="white"/>
</svg>
