<svg width="456" height="456" viewBox="0 0 456 456" fill="none" xmlns="http://www.w3.org/2000/svg">
<path d="M139.497 210H171.762C172.21 210 172.571 210.137 172.846 210.41C173.122 210.683 173.259 211.042 173.259 211.486V217.277C173.259 217.721 173.122 218.08 172.846 218.353C172.571 218.626 172.21 218.763 171.762 218.763H148.222C147.809 218.763 147.464 218.899 147.189 219.173C146.948 219.412 146.828 219.736 146.828 220.146C146.828 220.556 146.948 220.898 147.189 221.171C147.464 221.41 147.809 221.53 148.222 221.53H171.762C172.21 221.53 172.571 221.667 172.846 221.94C173.122 222.213 173.259 222.572 173.259 223.016V243.463C173.259 243.907 173.122 244.265 172.846 244.539C172.571 244.812 172.21 244.949 171.762 244.949H139.549C139.101 244.949 138.74 244.812 138.465 244.539C138.189 244.265 138.052 243.907 138.052 243.463V237.672C138.052 237.228 138.189 236.869 138.465 236.596C138.74 236.323 139.101 236.186 139.549 236.186H162.883C163.33 236.186 163.692 236.049 163.967 235.776C164.242 235.503 164.38 235.144 164.38 234.7V231.881C164.38 231.437 164.242 231.079 163.967 230.805C163.692 230.532 163.33 230.395 162.883 230.395H139.497C139.05 230.395 138.688 230.259 138.413 229.985C138.138 229.712 138 229.353 138 228.909V211.486C138 211.042 138.138 210.683 138.413 210.41C138.688 210.137 139.05 210 139.497 210Z" fill="white"/>
<path d="M179.642 243.463V211.537C179.642 211.093 179.78 210.735 180.055 210.461C180.331 210.188 180.692 210.051 181.139 210.051H204.628C205.076 210.051 205.437 210.188 205.712 210.461C205.988 210.735 206.125 211.093 206.125 211.537V217.277C206.125 217.721 205.988 218.08 205.712 218.353C205.437 218.626 205.076 218.763 204.628 218.763H189.967C188.969 218.763 188.47 219.241 188.47 220.198C188.47 221.188 188.969 221.684 189.967 221.684H201.686C202.133 221.684 202.495 221.82 202.77 222.094C203.045 222.367 203.183 222.726 203.183 223.17V228.909C203.183 229.353 203.045 229.712 202.77 229.985C202.495 230.259 202.133 230.395 201.686 230.395H189.967C189.52 230.395 189.158 230.532 188.883 230.805C188.608 231.079 188.47 231.437 188.47 231.881V234.751C188.47 235.195 188.608 235.554 188.883 235.827C189.158 236.101 189.52 236.237 189.967 236.237H204.628C205.076 236.237 205.437 236.374 205.712 236.647C205.988 236.92 206.125 237.279 206.125 237.723V243.514C206.125 243.958 205.988 244.317 205.712 244.59C205.437 244.863 205.076 245 204.628 245L181.139 244.949C180.692 244.949 180.331 244.829 180.055 244.59C179.78 244.317 179.642 243.941 179.642 243.463Z" fill="white"/>
<path d="M209.955 217.225V211.486C209.955 211.042 210.093 210.683 210.368 210.41C210.644 210.137 211.005 210 211.452 210H240.723C241.171 210 241.532 210.137 241.807 210.41C242.083 210.683 242.22 211.042 242.22 211.486V217.225C242.22 217.67 242.083 218.028 241.807 218.302C241.532 218.575 241.171 218.712 240.723 218.712H232.102C231.655 218.712 231.293 218.848 231.018 219.122C230.743 219.395 230.605 219.754 230.605 220.198V243.463C230.605 243.907 230.467 244.265 230.192 244.539C229.917 244.812 229.555 244.949 229.108 244.949H223.171C222.724 244.949 222.362 244.812 222.087 244.539C221.812 244.265 221.674 243.907 221.674 243.463V220.198C221.674 219.754 221.536 219.395 221.261 219.122C220.986 218.848 220.624 218.712 220.177 218.712H211.452C211.005 218.712 210.644 218.575 210.368 218.302C210.093 218.028 209.955 217.67 209.955 217.225Z" fill="white"/>
<path d="M245.548 217.225V211.486C245.548 211.042 245.685 210.683 245.961 210.41C246.236 210.137 246.597 210 247.045 210H276.316C276.763 210 277.125 210.137 277.4 210.41C277.675 210.683 277.813 211.042 277.813 211.486V217.225C277.813 217.67 277.675 218.028 277.4 218.302C277.125 218.575 276.763 218.712 276.316 218.712H267.695C267.247 218.712 266.886 218.848 266.61 219.122C266.335 219.395 266.198 219.754 266.198 220.198V243.463C266.198 243.907 266.06 244.265 265.785 244.539C265.509 244.812 265.148 244.949 264.7 244.949H258.764C258.316 244.949 257.955 244.812 257.68 244.539C257.404 244.265 257.267 243.907 257.267 243.463V220.198C257.267 219.754 257.129 219.395 256.854 219.122C256.578 218.848 256.217 218.712 255.769 218.712H247.045C246.597 218.712 246.236 218.575 245.961 218.302C245.685 218.028 245.548 217.67 245.548 217.225Z" fill="white"/>
<path d="M282.689 243.411V211.486C282.689 211.042 282.827 210.683 283.102 210.41C283.377 210.137 283.739 210 284.186 210H316.503C316.95 210 317.312 210.137 317.587 210.41C317.862 210.683 318 211.042 318 211.486V243.463C318 243.907 317.862 244.265 317.587 244.539C317.312 244.812 316.95 244.949 316.503 244.949H310.566C310.119 244.949 309.757 244.812 309.482 244.539C309.207 244.265 309.069 243.907 309.069 243.463V240.644C309.069 240.2 308.931 239.841 308.656 239.568C308.381 239.295 308.019 239.158 307.572 239.158H293.066C292.618 239.158 292.257 239.295 291.981 239.568C291.706 239.841 291.568 240.2 291.568 240.644V243.411C291.568 243.856 291.431 244.214 291.155 244.488C290.88 244.761 290.519 244.898 290.071 244.898H284.186C283.739 244.898 283.377 244.761 283.102 244.488C282.827 244.214 282.689 243.856 282.689 243.411ZM293.066 230.344H307.572C308.019 230.344 308.381 230.207 308.656 229.934C308.931 229.661 309.069 229.302 309.069 228.858V220.198C309.069 219.754 308.931 219.395 308.656 219.122C308.381 218.848 308.019 218.712 307.572 218.712H293.066C292.618 218.712 292.257 218.848 291.981 219.122C291.706 219.395 291.568 219.754 291.568 220.198V228.858C291.568 229.302 291.706 229.661 291.981 229.934C292.257 230.207 292.618 230.344 293.066 230.344Z" fill="white"/>
</svg>
