<svg width="12" height="12" viewBox="0 0 12 12" fill="none" xmlns="http://www.w3.org/2000/svg">
<path d="M8.64797 6.39796L4.89797 10.148C4.7923 10.2536 4.64897 10.313 4.49953 10.313C4.35009 10.313 4.20676 10.2536 4.10109 10.148C3.99542 10.0423 3.93605 9.89897 3.93605 9.74953C3.93605 9.60008 3.99542 9.45676 4.10109 9.35109L7.45312 5.99999L4.10203 2.64796C4.04971 2.59564 4.0082 2.53352 3.97988 2.46516C3.95157 2.39679 3.93699 2.32352 3.93699 2.24953C3.93699 2.17553 3.95157 2.10226 3.97988 2.03389C4.0082 1.96553 4.04971 1.90341 4.10203 1.85109C4.15435 1.79877 4.21647 1.75726 4.28483 1.72894C4.3532 1.70063 4.42647 1.68605 4.50047 1.68605C4.57446 1.68605 4.64774 1.70063 4.7161 1.72894C4.78446 1.75726 4.84658 1.79877 4.8989 1.85109L8.6489 5.60109C8.70128 5.65341 8.74282 5.71555 8.77113 5.78396C8.79944 5.85237 8.81397 5.92569 8.81388 5.99972C8.81379 6.07375 8.79909 6.14704 8.77062 6.21538C8.74215 6.28372 8.70047 6.34577 8.64797 6.39796Z" fill="#808080"/>
</svg>
