<svg width="12" height="12" viewBox="0 0 12 12" fill="none" xmlns="http://www.w3.org/2000/svg">
<path d="M10.148 4.89797L6.39797 8.64797C6.34571 8.70041 6.28361 8.74202 6.21524 8.77041C6.14687 8.7988 6.07356 8.81342 5.99953 8.81342C5.9255 8.81342 5.85219 8.7988 5.78382 8.77041C5.71545 8.74202 5.65335 8.70041 5.60109 8.64797L1.85109 4.89797C1.74542 4.7923 1.68605 4.64898 1.68605 4.49954C1.68605 4.35009 1.74542 4.20677 1.85109 4.1011C1.95676 3.99543 2.10009 3.93606 2.24953 3.93606C2.39897 3.93606 2.5423 3.99543 2.64797 4.1011L6 7.45313L9.35203 4.10063C9.4577 3.99496 9.60102 3.93559 9.75047 3.93559C9.89991 3.93559 10.0432 3.99496 10.1489 4.10063C10.2546 4.2063 10.3139 4.34963 10.3139 4.49907C10.3139 4.64851 10.2546 4.79183 10.1489 4.89751L10.148 4.89797Z" fill="#808080"/>
</svg>
