<svg width="32" height="32" viewBox="0 0 32 32" fill="none" xmlns="http://www.w3.org/2000/svg">
<g clip-path="url(#clip0_140_408)">
<mask id="mask0_140_408" style="mask-type:luminance" maskUnits="userSpaceOnUse" x="0" y="0" width="32" height="32">
<path d="M32 0H0V32H32V0Z" fill="white"/>
</mask>
<g mask="url(#mask0_140_408)">
<path d="M25.0003 8V24C25.0003 24.5305 24.7896 25.0391 24.4145 25.4142C24.0395 25.7893 23.5307 26 23.0003 26H21.0003C20.4699 26 19.9612 25.7893 19.586 25.4142C19.211 25.0391 19.0003 24.5305 19.0003 24V17H13.0003V24C13.0003 24.5305 12.7896 25.0391 12.4145 25.4142C12.0395 25.7893 11.5307 26 11.0003 26H9.00031C8.46987 26 7.96116 25.7893 7.58609 25.4142C7.21102 25.0391 7.00031 24.5305 7.00031 24V8C7.00031 7.46957 7.21102 6.96086 7.58609 6.58578C7.96116 6.21071 8.46987 6 9.00031 6H11.0003C11.5307 6 12.0395 6.21071 12.4145 6.58578C12.7896 6.96086 13.0003 7.46957 13.0003 8V15H19.0003V8C19.0003 7.46957 19.211 6.96086 19.586 6.58578C19.9612 6.21071 20.4699 6 21.0003 6H23.0003C23.5307 6 24.0395 6.21071 24.4145 6.58578C24.7896 6.96086 25.0003 7.46957 25.0003 8ZM4.50031 9H4.00031C3.46988 9 2.96116 9.21071 2.58609 9.58579C2.21102 9.96086 2.00031 10.4696 2.00031 11V15H1.03405C0.775638 14.9962 0.525361 15.0903 0.333571 15.2636C0.141783 15.4368 0.0227093 15.6763 0.000305091 15.9338C-0.00877731 16.0705 0.0103619 16.2077 0.0565339 16.3369C0.102706 16.4659 0.174925 16.5841 0.268704 16.6841C0.362483 16.7841 0.475821 16.8637 0.601677 16.9181C0.727532 16.9724 0.863217 17.0003 1.00031 17H2.00031V21C2.00031 21.5305 2.21102 22.0391 2.58609 22.4142C2.96116 22.7893 3.46988 23 4.00031 23H4.50031C4.63292 23 4.76009 22.9473 4.85385 22.8535C4.94762 22.7598 5.00031 22.6326 5.00031 22.5001V9.5C5.00031 9.36739 4.94762 9.24021 4.85385 9.14644C4.76009 9.05268 4.63292 9 4.50031 9ZM32.0003 15.9338C31.9779 15.6767 31.8592 15.4377 31.668 15.2644C31.4767 15.0913 31.227 14.9968 30.9691 15H30.0003V11C30.0003 10.4696 29.7896 9.96086 29.4145 9.58579C29.0395 9.21071 28.5307 9 28.0003 9H27.5003C27.3677 9 27.2406 9.05268 27.1468 9.14644C27.053 9.24021 27.0003 9.36739 27.0003 9.5V22.5001C27.0003 22.6326 27.053 22.7598 27.1468 22.8535C27.2406 22.9473 27.3677 23 27.5003 23H28.0003C28.5307 23 29.0395 22.7893 29.4145 22.4142C29.7896 22.0391 30.0003 21.5305 30.0003 21V17H31.0003C31.1374 17.0003 31.2731 16.9724 31.399 16.9181C31.5248 16.8637 31.6381 16.7841 31.7319 16.6841C31.8257 16.5841 31.8979 16.4659 31.9441 16.3369C31.9902 16.2077 32.0094 16.0705 32.0003 15.9338Z" fill="#808080"/>
</g>
</g>
<defs>
<clipPath id="clip0_140_408">
<rect width="32" height="32" fill="white"/>
</clipPath>
</defs>
</svg>
