<svg width="21" height="21" viewBox="0 0 21 21" fill="none" xmlns="http://www.w3.org/2000/svg">
<path d="M8.28638 15.7217L3.20826 15.7217C3.0425 15.7217 2.88352 15.7875 2.76631 15.9047C2.6491 16.0219 2.58326 16.1809 2.58326 16.3467C2.58326 16.5124 2.6491 16.6714 2.76631 16.7886C2.88352 16.9058 3.0425 16.9717 3.20826 16.9717L8.28638 16.9717C8.42407 17.5094 8.73682 17.9861 9.17532 18.3265C9.61383 18.6668 10.1531 18.8516 10.7083 18.8516C11.2634 18.8516 11.8027 18.6668 12.2412 18.3265C12.6797 17.9861 12.9924 17.5094 13.1301 16.9717L16.9583 16.9717C17.124 16.9717 17.283 16.9058 17.4002 16.7886C17.5174 16.6714 17.5833 16.5124 17.5833 16.3467C17.5833 16.1809 17.5174 16.0219 17.4002 15.9047C17.283 15.7875 17.124 15.7217 16.9583 15.7217L13.1301 15.7217C12.9924 15.1839 12.6797 14.7073 12.2412 14.3669C11.8027 14.0265 11.2634 13.8418 10.7083 13.8418C10.1531 13.8418 9.61383 14.0265 9.17532 14.3669C8.73682 14.7073 8.42407 15.1839 8.28638 15.7217ZM11.9583 16.3467C11.9583 16.5939 11.8849 16.8356 11.7476 17.0411C11.6102 17.2467 11.415 17.4069 11.1866 17.5015C10.9582 17.5961 10.7069 17.6209 10.4644 17.5727C10.2219 17.5244 9.99919 17.4054 9.82437 17.2306C9.64956 17.0557 9.53051 16.833 9.48227 16.5905C9.43404 16.3481 9.4588 16.0967 9.55341 15.8683C9.64802 15.6399 9.80823 15.4447 10.0138 15.3073C10.2194 15.17 10.461 15.0967 10.7083 15.0967C11.0398 15.0967 11.3577 15.2284 11.5921 15.4628C11.8266 15.6972 11.9583 16.0152 11.9583 16.3467ZM4.53638 10.0967L3.20826 10.0967C3.0425 10.0967 2.88352 10.1625 2.76631 10.2797C2.6491 10.3969 2.58326 10.5559 2.58326 10.7217C2.58326 10.8874 2.6491 11.0464 2.76631 11.1636C2.88352 11.2808 3.0425 11.3467 3.20826 11.3467L4.53638 11.3467C4.67407 11.8844 4.98682 12.3611 5.42532 12.7015C5.86383 13.0418 6.40315 13.2266 6.95826 13.2266C7.51336 13.2266 8.05268 13.0418 8.49119 12.7015C8.92969 12.3611 9.24244 11.8844 9.38013 11.3467L16.9583 11.3467C17.124 11.3467 17.283 11.2808 17.4002 11.1636C17.5174 11.0464 17.5833 10.8874 17.5833 10.7217C17.5833 10.5559 17.5174 10.3969 17.4002 10.2797C17.283 10.1625 17.124 10.0967 16.9583 10.0967L9.38013 10.0967C9.24244 9.55892 8.92969 9.08228 8.49119 8.74191C8.05268 8.40153 7.51336 8.21678 6.95826 8.21678C6.40315 8.21678 5.86383 8.40153 5.42532 8.74191C4.98682 9.08228 4.67407 9.55892 4.53638 10.0967ZM8.20826 10.7217C8.20826 10.9689 8.13494 11.2106 7.99759 11.4161C7.86024 11.6217 7.66502 11.7819 7.43661 11.8765C7.2082 11.9711 6.95687 11.9959 6.71439 11.9477C6.47192 11.8994 6.24919 11.7804 6.07437 11.6056C5.89956 11.4307 5.78051 11.208 5.73227 10.9655C5.68404 10.7231 5.7088 10.4717 5.80341 10.2433C5.89802 10.0149 6.05823 9.8197 6.26379 9.68234C6.46935 9.54499 6.71103 9.47168 6.95826 9.47168C7.28978 9.47168 7.60772 9.60338 7.84214 9.8378C8.07656 10.0722 8.20826 10.3902 8.20826 10.7217ZM13.2083 2.59668C12.654 2.5972 12.1156 2.78155 11.6773 3.12085C11.2391 3.46015 10.9257 3.93523 10.7864 4.47168L3.20826 4.47168C3.04249 4.47168 2.88352 4.53753 2.76631 4.65474C2.6491 4.77195 2.58326 4.93092 2.58326 5.09668C2.58326 5.26244 2.6491 5.42141 2.76631 5.53862C2.88352 5.65583 3.04249 5.72168 3.20826 5.72168L10.7864 5.72168C10.9241 6.25944 11.2368 6.73608 11.6753 7.07645C12.1138 7.41683 12.6531 7.60158 13.2083 7.60158C13.7634 7.60158 14.3027 7.41683 14.7412 7.07645C15.1797 6.73608 15.4924 6.25944 15.6301 5.72168L16.9583 5.72168C17.124 5.72168 17.283 5.65583 17.4002 5.53862C17.5174 5.42141 17.5833 5.26244 17.5833 5.09668C17.5833 4.93092 17.5174 4.77195 17.4002 4.65474C17.283 4.53753 17.124 4.47168 16.9583 4.47168L15.6301 4.47168C15.4908 3.93523 15.1774 3.46015 14.7392 3.12085C14.3009 2.78155 13.7625 2.5972 13.2083 2.59668ZM14.4583 5.09668C14.4583 5.34391 14.3849 5.58558 14.2476 5.79114C14.1102 5.9967 13.915 6.15692 13.6866 6.25153C13.4582 6.34614 13.2069 6.37089 12.9644 6.32266C12.7219 6.27443 12.4992 6.15538 12.3244 5.98056C12.1496 5.80575 12.0305 5.58302 11.9823 5.34054C11.934 5.09807 11.9588 4.84673 12.0534 4.61833C12.148 4.38992 12.3082 4.1947 12.5138 4.05734C12.7194 3.91999 12.961 3.84668 13.2083 3.84668C13.5398 3.84668 13.8577 3.97838 14.0921 4.2128C14.3266 4.44722 14.4583 4.76516 14.4583 5.09668Z" fill="#808080"/>
</svg>
