<svg width="20" height="20" viewBox="0 0 20 20" fill="none" xmlns="http://www.w3.org/2000/svg">
<path d="M7.97344 14.6875L3.125 14.6875C2.87636 14.6875 2.6379 14.7863 2.46209 14.9621C2.28627 15.1379 2.1875 15.3764 2.1875 15.625C2.1875 15.8736 2.28627 16.1121 2.46209 16.2879C2.6379 16.4637 2.87636 16.5625 3.125 16.5625L7.97344 16.5625C8.16734 17.1108 8.52645 17.5855 9.00131 17.9212C9.47617 18.257 10.0434 18.4373 10.625 18.4373C11.2066 18.4373 11.7738 18.257 12.2487 17.9212C12.7236 17.5855 13.0827 17.1108 13.2766 16.5625L16.875 16.5625C17.1236 16.5625 17.3621 16.4637 17.5379 16.2879C17.7137 16.1121 17.8125 15.8736 17.8125 15.625C17.8125 15.3764 17.7137 15.1379 17.5379 14.9621C17.3621 14.7863 17.1236 14.6875 16.875 14.6875L13.2766 14.6875C13.0827 14.1392 12.7236 13.6645 12.2487 13.3288C11.7738 12.993 11.2066 12.8128 10.625 12.8128C10.0434 12.8128 9.47617 12.993 9.00131 13.3288C8.52645 13.6645 8.16734 14.1392 7.97344 14.6875ZM11.5625 15.625C11.5625 15.8104 11.5075 15.9917 11.4045 16.1459C11.3015 16.3 11.1551 16.4202 10.9838 16.4911C10.8125 16.5621 10.624 16.5807 10.4421 16.5445C10.2602 16.5083 10.0932 16.419 9.96209 16.2879C9.83098 16.1568 9.74169 15.9898 9.70551 15.8079C9.66934 15.626 9.68791 15.4375 9.75886 15.2662C9.82982 15.0949 9.94998 14.9485 10.1042 14.8455C10.2583 14.7425 10.4396 14.6875 10.625 14.6875C10.8736 14.6875 11.1121 14.7863 11.2879 14.9621C11.4637 15.1379 11.5625 15.3764 11.5625 15.625ZM6.875 7.1875C6.29359 7.18832 5.72667 7.36895 5.25196 7.70463C4.77725 8.04032 4.41799 8.51462 4.22344 9.0625L3.125 9.0625C2.87636 9.0625 2.6379 9.16128 2.46209 9.33709C2.28627 9.51291 2.1875 9.75136 2.1875 10C2.1875 10.2486 2.28627 10.4871 2.46209 10.6629C2.6379 10.8387 2.87636 10.9375 3.125 10.9375L4.22344 10.9375C4.41734 11.4858 4.77645 11.9605 5.25131 12.2962C5.72617 12.632 6.29344 12.8123 6.875 12.8123C7.45656 12.8123 8.02383 12.632 8.49869 12.2962C8.97355 11.9605 9.33266 11.4858 9.52656 10.9375L16.875 10.9375C17.1236 10.9375 17.3621 10.8387 17.5379 10.6629C17.7137 10.4871 17.8125 10.2486 17.8125 10C17.8125 9.75136 17.7137 9.51291 17.5379 9.33709C17.3621 9.16128 17.1236 9.0625 16.875 9.0625L9.52656 9.0625C9.33201 8.51462 8.97275 8.04032 8.49804 7.70463C8.02333 7.36895 7.45641 7.18832 6.875 7.1875ZM7.8125 10C7.8125 10.1854 7.75752 10.3667 7.6545 10.5209C7.55149 10.675 7.40507 10.7952 7.23377 10.8661C7.06246 10.9371 6.87396 10.9557 6.6921 10.9195C6.51025 10.8833 6.3432 10.794 6.21209 10.6629C6.08098 10.5318 5.99169 10.3648 5.95551 10.1829C5.91934 10.001 5.93791 9.81254 6.00886 9.64124C6.07982 9.46993 6.19998 9.32352 6.35415 9.2205C6.50832 9.11749 6.68958 9.0625 6.875 9.0625C7.12364 9.0625 7.3621 9.16128 7.53791 9.33709C7.71373 9.51291 7.8125 9.75136 7.8125 10ZM13.125 1.5625C12.5436 1.56332 11.9767 1.74395 11.502 2.07963C11.0273 2.41532 10.668 2.88962 10.4734 3.4375L3.125 3.4375C2.87636 3.4375 2.6379 3.53628 2.46209 3.71209C2.28627 3.88791 2.1875 4.12636 2.1875 4.37501C2.1875 4.62365 2.28627 4.8621 2.46209 5.03792C2.6379 5.21373 2.87636 5.3125 3.125 5.3125L10.4734 5.3125C10.6673 5.86079 11.0264 6.33548 11.5013 6.67123C11.9762 7.00697 12.5434 7.18726 13.125 7.18726C13.7066 7.18726 14.2738 7.00697 14.7487 6.67123C15.2236 6.33548 15.5827 5.86079 15.7766 5.3125L16.875 5.3125C17.1236 5.3125 17.3621 5.21373 17.5379 5.03792C17.7137 4.8621 17.8125 4.62364 17.8125 4.375C17.8125 4.12636 17.7137 3.88791 17.5379 3.71209C17.3621 3.53628 17.1236 3.4375 16.875 3.4375L15.7766 3.4375C15.582 2.88962 15.2227 2.41532 14.748 2.07963C14.2733 1.74395 13.7064 1.56332 13.125 1.5625ZM14.0625 4.375C14.0625 4.56042 14.0075 4.74168 13.9045 4.89585C13.8015 5.05002 13.6551 5.17018 13.4838 5.24114C13.3125 5.3121 13.124 5.33066 12.9421 5.29449C12.7602 5.25832 12.5932 5.16903 12.4621 5.03792C12.331 4.9068 12.2417 4.73976 12.2055 4.5579C12.1693 4.37604 12.1879 4.18755 12.2589 4.01624C12.3298 3.84493 12.45 3.69852 12.6042 3.5955C12.7583 3.49249 12.9396 3.4375 13.125 3.4375C13.3736 3.4375 13.6121 3.53628 13.7879 3.71209C13.9637 3.88791 14.0625 4.12636 14.0625 4.375Z" fill="#808080"/>
</svg>
