<svg width="32" height="32" viewBox="0 0 32 32" fill="none" xmlns="http://www.w3.org/2000/svg">
<path d="M29.7425 13.4013C29.7147 13.2605 29.6567 13.1273 29.5729 13.0108C29.489 12.8943 29.381 12.7972 29.2562 12.7263L25.5275 10.6013L25.5124 6.39877C25.512 6.25404 25.4802 6.11113 25.4191 5.97992C25.358 5.8487 25.2692 5.7323 25.1587 5.63878C23.8062 4.49465 22.2485 3.61786 20.5687 3.05502C20.4365 3.01024 20.2962 2.99368 20.1571 3.00638C20.0181 3.01908 19.8832 3.06077 19.7613 3.12877L16 5.23127L12.235 3.12503C12.113 3.05664 11.9779 3.01464 11.8385 3.00171C11.6992 2.98879 11.5588 3.00525 11.4262 3.05002C9.74743 3.61647 8.19153 4.49665 6.84123 5.64377C6.73093 5.73716 6.6422 5.85336 6.58113 5.98434C6.52006 6.11533 6.48811 6.258 6.48748 6.40252L6.46873 10.6088L2.73998 12.7338C2.61523 12.8048 2.50723 12.9019 2.42333 13.0184C2.33942 13.1347 2.28158 13.268 2.25373 13.4088C1.91247 15.1236 1.91247 16.8889 2.25373 18.6037C2.28158 18.7445 2.33942 18.8778 2.42333 18.9943C2.50723 19.1107 2.61523 19.2078 2.73998 19.2787L6.46873 21.4037L6.48372 25.6075C6.48418 25.7522 6.51604 25.8952 6.57712 26.0264C6.6382 26.1576 6.72703 26.274 6.83748 26.3675C8.19007 27.5117 9.74767 28.3884 11.4275 28.9513C11.5598 28.9961 11.6999 29.0126 11.839 28.9999C11.9781 28.9872 12.113 28.9455 12.235 28.8776L16 26.7688L19.765 28.875C19.914 28.958 20.0819 29.0011 20.2525 29C20.3617 29 20.4702 28.9823 20.5738 28.9475C22.2521 28.3813 23.8079 27.5021 25.1587 26.3563C25.269 26.2628 25.3578 26.1467 25.4188 26.0157C25.4799 25.8847 25.5119 25.7421 25.5124 25.5976L25.5312 21.3913L29.2599 19.2663C29.3847 19.1952 29.4927 19.0983 29.5766 18.9818C29.6605 18.8653 29.7184 18.7321 29.7462 18.5913C30.0855 16.8778 30.0843 15.1143 29.7425 13.4013ZM16 21C15.0111 21 14.0444 20.7068 13.2221 20.1573C12.3999 19.608 11.759 18.8271 11.3806 17.9134C11.0021 16.9998 10.9031 15.9945 11.096 15.0245C11.289 14.0546 11.7652 13.1637 12.4644 12.4644C13.1637 11.7652 14.0546 11.289 15.0245 11.0961C15.9945 10.9032 16.9998 11.0021 17.9134 11.3806C18.827 11.7591 19.6079 12.3999 20.1573 13.2222C20.7068 14.0444 21 15.0111 21 16C21 17.3261 20.4732 18.5979 19.5355 19.5356C18.5979 20.4732 17.3261 21 16 21Z" fill="#808080"/>
</svg>
