<svg width="20" height="20" viewBox="0 0 20 20" fill="none" xmlns="http://www.w3.org/2000/svg">
<path d="M18.4211 11.1625C18.5728 11.1121 18.709 11.0237 18.8169 10.9057C18.9248 10.7878 19.0007 10.6443 19.0375 10.4887C19.0743 10.3332 19.0707 10.1708 19.0271 10.017C18.9835 9.86327 18.9013 9.72321 18.7883 9.61016L9.76562 0.587507C9.67852 0.500107 9.57503 0.43076 9.46108 0.383442C9.34712 0.336125 9.22495 0.311768 9.10156 0.311768C8.97817 0.311768 8.856 0.336125 8.74204 0.383442C8.62809 0.43076 8.52459 0.500107 8.4375 0.587507L5.48828 3.53829L3.7875 1.83751C3.61138 1.66139 3.37251 1.56244 3.12343 1.56244C2.87436 1.56244 2.63549 1.66139 2.45937 1.83751C2.28325 2.01363 2.18431 2.2525 2.18431 2.50157C2.18431 2.75064 2.28325 2.98951 2.45937 3.16563L4.1625 4.86407L0.953123 8.07423C0.749971 8.27736 0.588821 8.51851 0.478875 8.78393C0.368929 9.04934 0.31234 9.33382 0.31234 9.6211C0.31234 9.90839 0.368929 10.1929 0.478875 10.4583C0.588821 10.7237 0.749971 10.9648 0.953123 11.168L7.58281 17.7977C7.78594 18.0008 8.0271 18.162 8.29251 18.2719C8.55793 18.3819 8.8424 18.4384 9.12968 18.4384C9.41697 18.4384 9.70144 18.3819 9.96686 18.2719C10.2323 18.162 10.4734 18.0008 10.6766 17.7977L16.7562 11.7188L18.4211 11.1625ZM15.9539 10.0086C15.8156 10.0545 15.6898 10.1321 15.5867 10.2352L9.35078 16.4719C9.32176 16.5009 9.28729 16.524 9.24935 16.5397C9.21142 16.5554 9.17075 16.5635 9.12968 16.5635C9.08862 16.5635 9.04795 16.5554 9.01002 16.5397C8.97208 16.524 8.93761 16.5009 8.90859 16.4719L2.2789 9.84376C2.24985 9.81473 2.2268 9.78027 2.21107 9.74233C2.19535 9.70439 2.18725 9.66373 2.18725 9.62266C2.18725 9.5816 2.19535 9.54093 2.21107 9.50299C2.2268 9.46506 2.24985 9.43059 2.2789 9.40157L5.48828 6.19063L7.38593 8.08829C7.15975 8.62241 7.12633 9.21856 7.29139 9.77462C7.45646 10.3307 7.80975 10.812 8.29073 11.1362C8.77171 11.4604 9.35046 11.6073 9.92782 11.5516C10.5052 11.496 11.0452 11.2413 11.4555 10.8313C11.8653 10.4209 12.1197 9.88086 12.1751 9.30357C12.2306 8.72628 12.0836 8.14768 11.7593 7.66684C11.4351 7.18601 10.9538 6.83287 10.3978 6.66789C9.8418 6.50291 9.24575 6.53636 8.71172 6.76251L6.81484 4.86407L9.10312 2.57813L16.3898 9.86563L15.9539 10.0086ZM9.24531 8.62188C9.36294 8.5055 9.52192 8.44051 9.68739 8.44117C9.85286 8.44182 10.0113 8.50808 10.128 8.62539C10.2447 8.74271 10.3101 8.90152 10.3099 9.06699C10.3097 9.23246 10.2438 9.3911 10.1268 9.5081C10.0098 9.62511 9.8512 9.69094 9.68573 9.69116C9.52026 9.69138 9.36145 9.62597 9.24413 9.50927C9.12682 9.39258 9.06056 9.23412 9.05991 9.06865C9.05925 8.90318 9.12424 8.7442 9.24062 8.62657L9.24531 8.62188ZM20 16.25C20 16.7473 19.8025 17.2242 19.4508 17.5758C19.0992 17.9275 18.6223 18.125 18.125 18.125C17.6277 18.125 17.1508 17.9275 16.7992 17.5758C16.4475 17.2242 16.25 16.7473 16.25 16.25C16.25 14.7313 17.2602 13.3414 17.375 13.1875C17.4623 13.0711 17.5756 12.9766 17.7057 12.9115C17.8359 12.8464 17.9795 12.8125 18.125 12.8125C18.2705 12.8125 18.4141 12.8464 18.5443 12.9115C18.6744 12.9766 18.7877 13.0711 18.875 13.1875C18.9898 13.3422 20 14.732 20 16.25Z" fill="#808080"/>
</svg>
