<svg width="456" height="456" viewBox="0 0 456 456" fill="none" xmlns="http://www.w3.org/2000/svg">
<g clip-path="url(#clip0_423_1835)">
<path d="M270.188 126.5V201.5C270.188 203.986 269.2 206.371 267.442 208.129C265.683 209.887 263.299 210.875 260.813 210.875H251.438C248.951 210.875 246.567 209.887 244.808 208.129C243.05 206.371 242.063 203.986 242.063 201.5V168.688H213.938V201.5C213.938 203.986 212.95 206.371 211.192 208.129C209.433 209.887 207.049 210.875 204.563 210.875H195.188C192.701 210.875 190.317 209.887 188.558 208.129C186.8 206.371 185.813 203.986 185.813 201.5V126.5C185.813 124.014 186.8 121.629 188.558 119.871C190.317 118.113 192.701 117.125 195.188 117.125H204.563C207.049 117.125 209.433 118.113 211.192 119.871C212.95 121.629 213.938 124.014 213.938 126.5V159.312H242.063V126.5C242.063 124.014 243.05 121.629 244.808 119.871C246.567 118.113 248.951 117.125 251.438 117.125H260.813C263.299 117.125 265.683 118.113 267.442 119.871C269.2 121.629 270.188 124.014 270.188 126.5ZM174.094 131.188H171.75C169.264 131.188 166.879 132.175 165.121 133.933C163.363 135.692 162.375 138.076 162.375 140.562V159.312H157.846C156.634 159.295 155.461 159.736 154.562 160.548C153.663 161.36 153.105 162.483 153 163.689C152.957 164.331 153.047 164.974 153.264 165.579C153.48 166.184 153.819 166.738 154.258 167.207C154.698 167.675 155.229 168.049 155.819 168.303C156.409 168.558 157.045 168.689 157.688 168.688H162.375V187.438C162.375 189.924 163.363 192.308 165.121 194.067C166.879 195.825 169.264 196.812 171.75 196.812H174.094C174.715 196.812 175.312 196.566 175.751 196.126C176.191 195.686 176.438 195.09 176.438 194.469V133.531C176.438 132.91 176.191 132.314 175.751 131.874C175.312 131.434 174.715 131.188 174.094 131.188ZM303 163.689C302.895 162.485 302.339 161.364 301.442 160.552C300.546 159.74 299.375 159.298 298.166 159.312H293.625V140.562C293.625 138.076 292.637 135.692 290.879 133.933C289.121 132.175 286.736 131.188 284.25 131.188H281.906C281.285 131.188 280.689 131.434 280.249 131.874C279.809 132.314 279.563 132.91 279.563 133.531V194.469C279.563 195.09 279.809 195.686 280.249 196.126C280.689 196.566 281.285 196.812 281.906 196.812H284.25C286.736 196.812 289.121 195.825 290.879 194.067C292.637 192.308 293.625 189.924 293.625 187.438V168.688H298.313C298.955 168.689 299.591 168.558 300.181 168.303C300.771 168.049 301.302 167.675 301.742 167.207C302.181 166.738 302.52 166.184 302.736 165.579C302.953 164.974 303.043 164.331 303 163.689Z" fill="white"/>
</g>
<path d="M122.077 289C121.695 289 121.383 288.879 121.141 288.636C120.898 288.393 120.777 288.081 120.777 287.7V253.9C120.777 253.519 120.898 253.207 121.141 252.964C121.383 252.721 121.695 252.6 122.077 252.6H150.937C151.318 252.6 151.63 252.721 151.873 252.964C152.115 253.207 152.237 253.519 152.237 253.9V287.7C152.237 288.081 152.115 288.393 151.873 288.636C151.63 288.879 151.318 289 150.937 289H144.229C143.847 289 143.535 288.879 143.293 288.636C143.05 288.393 142.929 288.081 142.929 287.7V260.92H130.085V287.7C130.085 288.081 129.963 288.393 129.721 288.636C129.478 288.879 129.166 289 128.785 289H122.077ZM183.911 289C183.529 289 183.217 288.879 182.975 288.636C182.732 288.393 182.611 288.081 182.611 287.7V260.92H172.939V265.652C172.939 269.847 172.731 273.417 172.315 276.364C171.933 279.276 171.223 281.668 170.183 283.54C169.177 285.377 167.739 286.729 165.867 287.596C164.029 288.463 161.655 288.931 158.743 289C158.396 289 158.084 288.879 157.807 288.636C157.529 288.359 157.391 288.029 157.391 287.648V282.188C157.391 281.425 157.824 280.992 158.691 280.888C159.661 280.715 160.476 280.212 161.135 279.38C161.793 278.548 162.331 277.439 162.747 276.052C163.163 274.631 163.457 272.949 163.631 271.008C163.804 269.032 163.891 266.848 163.891 264.456V253.9C163.891 253.519 164.012 253.207 164.255 252.964C164.532 252.721 164.861 252.6 165.243 252.6H190.619C191 252.6 191.312 252.721 191.555 252.964C191.797 253.207 191.919 253.519 191.919 253.9V287.7C191.919 288.081 191.797 288.393 191.555 288.636C191.312 288.879 191 289 190.619 289H183.911ZM197.103 289C196.826 289 196.566 288.896 196.323 288.688C196.115 288.445 196.011 288.185 196.011 287.908C196.011 287.735 196.028 287.579 196.063 287.44L208.283 254.056C208.387 253.675 208.595 253.345 208.907 253.068C209.254 252.756 209.722 252.6 210.311 252.6H218.007C218.596 252.6 219.047 252.756 219.359 253.068C219.706 253.345 219.931 253.675 220.035 254.056L232.203 287.44C232.272 287.579 232.307 287.735 232.307 287.908C232.307 288.185 232.186 288.445 231.943 288.688C231.735 288.896 231.475 289 231.163 289H224.767C224.247 289 223.848 288.879 223.571 288.636C223.328 288.359 223.172 288.116 223.103 287.908L221.075 282.604H207.191L205.215 287.908C205.146 288.116 204.99 288.359 204.747 288.636C204.504 288.879 204.088 289 203.499 289H197.103ZM209.323 275.116H218.995L214.107 261.388L209.323 275.116ZM237.706 289C237.324 289 237.012 288.879 236.77 288.636C236.527 288.393 236.406 288.081 236.406 287.7V253.9C236.406 253.519 236.527 253.207 236.77 252.964C237.012 252.721 237.324 252.6 237.706 252.6H244.414C244.795 252.6 245.107 252.721 245.35 252.964C245.592 253.207 245.714 253.519 245.714 253.9V266.432H258.558V253.9C258.558 253.519 258.679 253.207 258.922 252.964C259.164 252.721 259.476 252.6 259.858 252.6H266.566C266.947 252.6 267.259 252.721 267.502 252.964C267.744 253.207 267.866 253.519 267.866 253.9V287.7C267.866 288.081 267.744 288.393 267.502 288.636C267.259 288.879 266.947 289 266.566 289H259.858C259.476 289 259.164 288.879 258.922 288.636C258.679 288.393 258.558 288.081 258.558 287.7V274.752H245.714V287.7C245.714 288.081 245.592 288.393 245.35 288.636C245.107 288.879 244.795 289 244.414 289H237.706ZM276.452 289C276.07 289 275.758 288.879 275.516 288.636C275.273 288.393 275.152 288.081 275.152 287.7V253.9C275.152 253.519 275.273 253.207 275.516 252.964C275.758 252.721 276.07 252.6 276.452 252.6H300.736C301.117 252.6 301.429 252.721 301.672 252.964C301.914 253.207 302.036 253.519 302.036 253.9V258.788C302.036 259.169 301.914 259.481 301.672 259.724C301.429 259.967 301.117 260.088 300.736 260.088H284.148V267.108H299.592C299.973 267.108 300.285 267.247 300.528 267.524C300.77 267.767 300.892 268.079 300.892 268.46V272.984C300.892 273.331 300.77 273.643 300.528 273.92C300.285 274.163 299.973 274.284 299.592 274.284H284.148V281.512H301.152C301.533 281.512 301.845 281.633 302.088 281.876C302.33 282.119 302.452 282.431 302.452 282.812V287.7C302.452 288.081 302.33 288.393 302.088 288.636C301.845 288.879 301.533 289 301.152 289H276.452ZM309.663 289C309.281 289 308.969 288.879 308.727 288.636C308.484 288.393 308.363 288.081 308.363 287.7V253.9C308.363 253.519 308.484 253.207 308.727 252.964C308.969 252.721 309.281 252.6 309.663 252.6H324.223C327.1 252.6 329.596 253.051 331.711 253.952C333.86 254.819 335.524 256.136 336.703 257.904C337.916 259.672 338.523 261.908 338.523 264.612C338.523 267.281 337.916 269.483 336.703 271.216C335.524 272.949 333.86 274.232 331.711 275.064C329.596 275.896 327.1 276.312 324.223 276.312H318.035V287.7C318.035 288.081 317.896 288.393 317.619 288.636C317.376 288.879 317.064 289 316.683 289H309.663ZM317.879 269.136H323.963C325.453 269.136 326.632 268.755 327.499 267.992C328.4 267.229 328.851 266.068 328.851 264.508C328.851 263.191 328.469 262.081 327.707 261.18C326.944 260.279 325.696 259.828 323.963 259.828H317.879V269.136ZM60.1589 353C59.7776 353 59.4656 352.879 59.2229 352.636C58.9803 352.393 58.8589 352.081 58.8589 351.7V324.764H49.6029C49.2216 324.764 48.9096 324.643 48.6669 324.4C48.4243 324.123 48.3029 323.811 48.3029 323.464V317.9C48.3029 317.519 48.4243 317.207 48.6669 316.964C48.9096 316.721 49.2216 316.6 49.6029 316.6H77.5789C77.9603 316.6 78.2723 316.721 78.5149 316.964C78.7576 317.207 78.8789 317.519 78.8789 317.9V323.464C78.8789 323.811 78.7576 324.123 78.5149 324.4C78.2723 324.643 77.9603 324.764 77.5789 324.764H68.3229V351.7C68.3229 352.081 68.2016 352.393 67.9589 352.636C67.7163 352.879 67.4043 353 67.0229 353H60.1589ZM84.9048 353C84.5235 353 84.2115 352.879 83.9688 352.636C83.7262 352.393 83.6048 352.081 83.6048 351.7V317.9C83.6048 317.519 83.7262 317.207 83.9688 316.964C84.2115 316.721 84.5235 316.6 84.9048 316.6H99.4648C102.342 316.6 104.838 317.051 106.953 317.952C109.102 318.819 110.766 320.136 111.945 321.904C113.158 323.672 113.765 325.908 113.765 328.612C113.765 331.281 113.158 333.483 111.945 335.216C110.766 336.949 109.102 338.232 106.953 339.064C104.838 339.896 102.342 340.312 99.4648 340.312H93.2768V351.7C93.2768 352.081 93.1382 352.393 92.8608 352.636C92.6182 352.879 92.3062 353 91.9248 353H84.9048ZM93.1208 333.136H99.2048C100.696 333.136 101.874 332.755 102.741 331.992C103.642 331.229 104.093 330.068 104.093 328.508C104.093 327.191 103.712 326.081 102.949 325.18C102.186 324.279 100.938 323.828 99.2048 323.828H93.1208V333.136ZM120.045 353C119.664 353 119.352 352.879 119.109 352.636C118.867 352.393 118.745 352.081 118.745 351.7V317.9C118.745 317.519 118.867 317.207 119.109 316.964C119.352 316.721 119.664 316.6 120.045 316.6H144.329C144.711 316.6 145.023 316.721 145.265 316.964C145.508 317.207 145.629 317.519 145.629 317.9V322.788C145.629 323.169 145.508 323.481 145.265 323.724C145.023 323.967 144.711 324.088 144.329 324.088H127.741V331.108H143.185C143.567 331.108 143.879 331.247 144.121 331.524C144.364 331.767 144.485 332.079 144.485 332.46V336.984C144.485 337.331 144.364 337.643 144.121 337.92C143.879 338.163 143.567 338.284 143.185 338.284H127.741V345.512H144.745C145.127 345.512 145.439 345.633 145.681 345.876C145.924 346.119 146.045 346.431 146.045 346.812V351.7C146.045 352.081 145.924 352.393 145.681 352.636C145.439 352.879 145.127 353 144.745 353H120.045ZM153.256 353C152.875 353 152.563 352.879 152.32 352.636C152.078 352.393 151.956 352.081 151.956 351.7V317.9C151.956 317.519 152.078 317.207 152.32 316.964C152.563 316.721 152.875 316.6 153.256 316.6H159.964C160.346 316.6 160.658 316.721 160.9 316.964C161.143 317.207 161.264 317.519 161.264 317.9V330.432H174.108V317.9C174.108 317.519 174.23 317.207 174.472 316.964C174.715 316.721 175.027 316.6 175.408 316.6H182.116C182.498 316.6 182.81 316.721 183.052 316.964C183.295 317.207 183.416 317.519 183.416 317.9V351.7C183.416 352.081 183.295 352.393 183.052 352.636C182.81 352.879 182.498 353 182.116 353H175.408C175.027 353 174.715 352.879 174.472 352.636C174.23 352.393 174.108 352.081 174.108 351.7V338.752H161.264V351.7C161.264 352.081 161.143 352.393 160.9 352.636C160.658 352.879 160.346 353 159.964 353H153.256ZM192.003 353C191.621 353 191.309 352.879 191.067 352.636C190.824 352.359 190.703 352.047 190.703 351.7V317.9C190.703 317.519 190.824 317.207 191.067 316.964C191.344 316.721 191.656 316.6 192.003 316.6H198.711C199.092 316.6 199.404 316.721 199.647 316.964C199.889 317.207 200.011 317.519 200.011 317.9V338.856L214.831 317.588C215.004 317.311 215.229 317.085 215.507 316.912C215.784 316.704 216.148 316.6 216.599 316.6H222.631C222.977 316.6 223.272 316.721 223.515 316.964C223.792 317.207 223.931 317.519 223.931 317.9V351.7C223.931 352.081 223.792 352.393 223.515 352.636C223.272 352.879 222.977 353 222.631 353H215.923C215.541 353 215.212 352.879 214.935 352.636C214.692 352.393 214.571 352.081 214.571 351.7V331.524L199.803 352.012C199.629 352.255 199.404 352.48 199.127 352.688C198.884 352.896 198.52 353 198.035 353H192.003ZM232.475 353C232.094 353 231.782 352.879 231.539 352.636C231.296 352.393 231.175 352.081 231.175 351.7V317.9C231.175 317.519 231.296 317.207 231.539 316.964C231.782 316.721 232.094 316.6 232.475 316.6H247.035C249.912 316.6 252.408 317.051 254.523 317.952C256.672 318.819 258.336 320.136 259.515 321.904C260.728 323.672 261.335 325.908 261.335 328.612C261.335 331.281 260.728 333.483 259.515 335.216C258.336 336.949 256.672 338.232 254.523 339.064C252.408 339.896 249.912 340.312 247.035 340.312H240.847V351.7C240.847 352.081 240.708 352.393 240.431 352.636C240.188 352.879 239.876 353 239.495 353H232.475ZM240.691 333.136H246.775C248.266 333.136 249.444 332.755 250.311 331.992C251.212 331.229 251.663 330.068 251.663 328.508C251.663 327.191 251.282 326.081 250.519 325.18C249.756 324.279 248.508 323.828 246.775 323.828H240.691V333.136ZM281.188 353.52C277.998 353.52 275.225 353 272.868 351.96C270.51 350.92 268.673 349.36 267.356 347.28C266.038 345.165 265.31 342.531 265.172 339.376C265.137 337.885 265.12 336.395 265.12 334.904C265.12 333.413 265.137 331.905 265.172 330.38C265.31 327.26 266.038 324.643 267.356 322.528C268.708 320.379 270.562 318.767 272.92 317.692C275.277 316.617 278.033 316.08 281.188 316.08C284.308 316.08 287.046 316.617 289.404 317.692C291.796 318.767 293.668 320.379 295.02 322.528C296.372 324.643 297.1 327.26 297.204 330.38C297.273 331.905 297.308 333.413 297.308 334.904C297.308 336.395 297.273 337.885 297.204 339.376C297.065 342.531 296.337 345.165 295.02 347.28C293.702 349.36 291.865 350.92 289.508 351.96C287.15 353 284.377 353.52 281.188 353.52ZM281.188 346.032C283.025 346.032 284.516 345.477 285.66 344.368C286.838 343.259 287.462 341.491 287.532 339.064C287.601 337.539 287.636 336.1 287.636 334.748C287.636 333.396 287.601 331.992 287.532 330.536C287.462 328.907 287.15 327.589 286.596 326.584C286.076 325.544 285.348 324.781 284.412 324.296C283.476 323.811 282.401 323.568 281.188 323.568C280.009 323.568 278.952 323.811 278.016 324.296C277.08 324.781 276.334 325.544 275.78 326.584C275.225 327.589 274.913 328.907 274.844 330.536C274.809 331.992 274.792 333.396 274.792 334.748C274.792 336.1 274.809 337.539 274.844 339.064C274.948 341.491 275.572 343.259 276.716 344.368C277.86 345.477 279.35 346.032 281.188 346.032ZM304.635 353C304.254 353 303.942 352.879 303.699 352.636C303.457 352.393 303.335 352.081 303.335 351.7V317.9C303.335 317.519 303.457 317.207 303.699 316.964C303.942 316.721 304.254 316.6 304.635 316.6H320.495C323.477 316.6 325.921 317.016 327.827 317.848C329.734 318.68 331.138 319.876 332.039 321.436C332.975 322.961 333.443 324.781 333.443 326.896C333.443 328.144 333.201 329.253 332.715 330.224C332.265 331.16 331.693 331.94 330.999 332.564C330.341 333.188 329.717 333.639 329.127 333.916C330.445 334.54 331.606 335.563 332.611 336.984C333.651 338.405 334.171 340.069 334.171 341.976C334.171 344.264 333.651 346.24 332.611 347.904C331.606 349.533 330.115 350.799 328.139 351.7C326.198 352.567 323.806 353 320.963 353H304.635ZM312.643 346.24H319.923C321.414 346.24 322.541 345.807 323.303 344.94C324.066 344.073 324.447 343.085 324.447 341.976C324.447 340.763 324.049 339.74 323.251 338.908C322.489 338.076 321.379 337.66 319.923 337.66H312.643V346.24ZM312.643 331.056H319.455C320.877 331.056 321.934 330.692 322.627 329.964C323.355 329.236 323.719 328.3 323.719 327.156C323.719 326.047 323.355 325.145 322.627 324.452C321.934 323.724 320.877 323.36 319.455 323.36H312.643V331.056ZM354.821 353.52C351.631 353.52 348.858 353 346.501 351.96C344.143 350.92 342.306 349.36 340.989 347.28C339.671 345.165 338.943 342.531 338.805 339.376C338.77 337.885 338.753 336.395 338.753 334.904C338.753 333.413 338.77 331.905 338.805 330.38C338.943 327.26 339.671 324.643 340.989 322.528C342.341 320.379 344.195 318.767 346.553 317.692C348.91 316.617 351.666 316.08 354.821 316.08C357.941 316.08 360.679 316.617 363.037 317.692C365.429 318.767 367.301 320.379 368.653 322.528C370.005 324.643 370.733 327.26 370.837 330.38C370.906 331.905 370.941 333.413 370.941 334.904C370.941 336.395 370.906 337.885 370.837 339.376C370.698 342.531 369.97 345.165 368.653 347.28C367.335 349.36 365.498 350.92 363.141 351.96C360.783 353 358.01 353.52 354.821 353.52ZM354.821 346.032C356.658 346.032 358.149 345.477 359.293 344.368C360.471 343.259 361.095 341.491 361.165 339.064C361.234 337.539 361.269 336.1 361.269 334.748C361.269 333.396 361.234 331.992 361.165 330.536C361.095 328.907 360.783 327.589 360.229 326.584C359.709 325.544 358.981 324.781 358.045 324.296C357.109 323.811 356.034 323.568 354.821 323.568C353.642 323.568 352.585 323.811 351.649 324.296C350.713 324.781 349.967 325.544 349.413 326.584C348.858 327.589 348.546 328.907 348.477 330.536C348.442 331.992 348.425 333.396 348.425 334.748C348.425 336.1 348.442 337.539 348.477 339.064C348.581 341.491 349.205 343.259 350.349 344.368C351.493 345.477 352.983 346.032 354.821 346.032ZM378.268 353C377.887 353 377.575 352.879 377.332 352.636C377.089 352.393 376.968 352.081 376.968 351.7V317.9C376.968 317.519 377.089 317.207 377.332 316.964C377.575 316.721 377.887 316.6 378.268 316.6H384.976C385.357 316.6 385.669 316.721 385.912 316.964C386.155 317.207 386.276 317.519 386.276 317.9V330.432H389.448L397.144 317.588C397.317 317.311 397.56 317.085 397.872 316.912C398.184 316.704 398.583 316.6 399.068 316.6H406.556C406.903 316.6 407.18 316.721 407.388 316.964C407.596 317.172 407.7 317.415 407.7 317.692C407.7 317.9 407.631 318.108 407.492 318.316L397.82 334.124L408.428 351.232C408.532 351.371 408.584 351.561 408.584 351.804C408.584 352.151 408.463 352.445 408.22 352.688C408.012 352.896 407.735 353 407.388 353H399.692C399.137 353 398.721 352.879 398.444 352.636C398.201 352.393 398.011 352.185 397.872 352.012L389.812 338.752H386.276V351.7C386.276 352.081 386.155 352.393 385.912 352.636C385.669 352.879 385.357 353 384.976 353H378.268Z" fill="white"/>
<defs>
<clipPath id="clip0_423_1835">
<rect width="150" height="150" fill="white" transform="translate(153 89)"/>
</clipPath>
</defs>
</svg>
