<svg width="456" height="456" viewBox="0 0 456 456" fill="none" xmlns="http://www.w3.org/2000/svg">
<path d="M41.1606 191H109.276C110.22 191 110.983 191.289 111.565 191.867C112.146 192.445 112.436 193.203 112.436 194.142V206.385C112.436 207.324 112.146 208.082 111.565 208.66C110.983 209.238 110.22 209.527 109.276 209.527H59.5789C58.7071 209.527 57.9805 209.816 57.3992 210.394C56.8906 210.899 56.6364 211.586 56.6364 212.452C56.6364 213.319 56.8906 214.041 57.3992 214.619C57.9805 215.125 58.7071 215.378 59.5789 215.378H109.276C110.22 215.378 110.983 215.667 111.565 216.245C112.146 216.822 112.436 217.581 112.436 218.52V261.75C112.436 262.689 112.146 263.447 111.565 264.025C110.983 264.603 110.22 264.892 109.276 264.892H41.2695C40.325 264.892 39.5621 264.603 38.9809 264.025C38.3996 263.447 38.109 262.689 38.109 261.75V249.507C38.109 248.568 38.3996 247.809 38.9809 247.231C39.5621 246.653 40.325 246.365 41.2695 246.365H90.5305C91.4751 246.365 92.238 246.076 92.8192 245.498C93.4005 244.92 93.6911 244.162 93.6911 243.223V237.264C93.6911 236.325 93.4005 235.566 92.8192 234.988C92.238 234.41 91.4751 234.122 90.5305 234.122H41.1606C40.216 234.122 39.4531 233.833 38.8719 233.255C38.2906 232.677 38 231.918 38 230.98V194.142C38 193.203 38.2906 192.445 38.8719 191.867C39.4531 191.289 40.216 191 41.1606 191Z" fill="white"/>
<path d="M125.911 261.75V194.25C125.911 193.311 126.202 192.553 126.783 191.975C127.364 191.397 128.127 191.108 129.072 191.108H178.66C179.604 191.108 180.367 191.397 180.949 191.975C181.53 192.553 181.82 193.311 181.82 194.25V206.385C181.82 207.324 181.53 208.082 180.949 208.66C180.367 209.238 179.604 209.527 178.66 209.527H147.708C145.601 209.527 144.548 210.538 144.548 212.561C144.548 214.655 145.601 215.703 147.708 215.703H172.448C173.392 215.703 174.155 215.992 174.736 216.57C175.318 217.147 175.608 217.906 175.608 218.845V230.98C175.608 231.918 175.318 232.677 174.736 233.255C174.155 233.833 173.392 234.122 172.448 234.122H147.708C146.764 234.122 146.001 234.41 145.42 234.988C144.838 235.566 144.548 236.325 144.548 237.264V243.331C144.548 244.27 144.838 245.028 145.42 245.606C146.001 246.184 146.764 246.473 147.708 246.473H178.66C179.604 246.473 180.367 246.762 180.949 247.34C181.53 247.918 181.82 248.676 181.82 249.615V261.858C181.82 262.797 181.53 263.555 180.949 264.133C180.367 264.711 179.604 265 178.66 265L129.072 264.892C128.127 264.892 127.364 264.639 126.783 264.133C126.202 263.555 125.911 262.761 125.911 261.75Z" fill="white"/>
<path d="M189.906 206.277V194.142C189.906 193.203 190.196 192.445 190.778 191.867C191.359 191.289 192.122 191 193.066 191H254.86C255.805 191 256.568 191.289 257.149 191.867C257.73 192.445 258.021 193.203 258.021 194.142V206.277C258.021 207.216 257.73 207.974 257.149 208.552C256.568 209.13 255.805 209.419 254.86 209.419H236.66C235.715 209.419 234.953 209.708 234.371 210.286C233.79 210.863 233.499 211.622 233.499 212.561V261.75C233.499 262.689 233.209 263.447 232.628 264.025C232.046 264.603 231.283 264.892 230.339 264.892H217.806C216.861 264.892 216.098 264.603 215.517 264.025C214.936 263.447 214.645 262.689 214.645 261.75V212.561C214.645 211.622 214.355 210.863 213.773 210.286C213.192 209.708 212.429 209.419 211.485 209.419H193.066C192.122 209.419 191.359 209.13 190.778 208.552C190.196 207.974 189.906 207.216 189.906 206.277Z" fill="white"/>
<path d="M265.045 206.277V194.142C265.045 193.203 265.336 192.445 265.917 191.867C266.499 191.289 267.261 191 268.206 191H330C330.945 191 331.708 191.289 332.289 191.867C332.87 192.445 333.161 193.203 333.161 194.142V206.277C333.161 207.216 332.87 207.974 332.289 208.552C331.708 209.13 330.945 209.419 330 209.419H311.8C310.855 209.419 310.092 209.708 309.511 210.286C308.93 210.863 308.639 211.622 308.639 212.561V261.75C308.639 262.689 308.349 263.447 307.767 264.025C307.186 264.603 306.423 264.892 305.479 264.892H292.945C292.001 264.892 291.238 264.603 290.657 264.025C290.075 263.447 289.785 262.689 289.785 261.75V212.561C289.785 211.622 289.494 210.863 288.913 210.286C288.332 209.708 287.569 209.419 286.624 209.419H268.206C267.261 209.419 266.499 209.13 265.917 208.552C265.336 207.974 265.045 207.216 265.045 206.277Z" fill="white"/>
<path d="M343.455 261.641V194.142C343.455 193.203 343.745 192.445 344.326 191.867C344.908 191.289 345.671 191 346.615 191H414.839C415.784 191 416.547 191.289 417.128 191.867C417.709 192.445 418 193.203 418 194.142V261.75C418 262.689 417.709 263.447 417.128 264.025C416.547 264.603 415.784 264.892 414.839 264.892H402.306C401.362 264.892 400.599 264.603 400.018 264.025C399.436 263.447 399.146 262.689 399.146 261.75V255.791C399.146 254.852 398.855 254.093 398.274 253.515C397.693 252.938 396.93 252.649 395.985 252.649H365.361C364.416 252.649 363.653 252.938 363.072 253.515C362.491 254.093 362.2 254.852 362.2 255.791V261.641C362.2 262.58 361.909 263.339 361.328 263.917C360.747 264.494 359.984 264.783 359.039 264.783H346.615C345.671 264.783 344.908 264.494 344.326 263.917C343.745 263.339 343.455 262.58 343.455 261.641ZM365.361 234.013H395.985C396.93 234.013 397.693 233.724 398.274 233.146C398.855 232.569 399.146 231.81 399.146 230.871V212.561C399.146 211.622 398.855 210.863 398.274 210.286C397.693 209.708 396.93 209.419 395.985 209.419H365.361C364.416 209.419 363.653 209.708 363.072 210.286C362.491 210.863 362.2 211.622 362.2 212.561V230.871C362.2 231.81 362.491 232.569 363.072 233.146C363.653 233.724 364.416 234.013 365.361 234.013Z" fill="white"/>
</svg>
