<svg width="456" height="456" viewBox="0 0 456 456" fill="none" xmlns="http://www.w3.org/2000/svg">
<g clip-path="url(#clip0_423_1835)">
<path d="M270.188 126.5V201.5C270.188 203.986 269.2 206.371 267.442 208.129C265.683 209.887 263.299 210.875 260.813 210.875H251.438C248.951 210.875 246.567 209.887 244.808 208.129C243.05 206.371 242.063 203.986 242.063 201.5V168.688H213.938V201.5C213.938 203.986 212.95 206.371 211.192 208.129C209.433 209.887 207.049 210.875 204.563 210.875H195.188C192.701 210.875 190.317 209.887 188.558 208.129C186.8 206.371 185.813 203.986 185.813 201.5V126.5C185.813 124.014 186.8 121.629 188.558 119.871C190.317 118.113 192.701 117.125 195.188 117.125H204.563C207.049 117.125 209.433 118.113 211.192 119.871C212.95 121.629 213.938 124.014 213.938 126.5V159.312H242.063V126.5C242.063 124.014 243.05 121.629 244.808 119.871C246.567 118.113 248.951 117.125 251.438 117.125H260.813C263.299 117.125 265.683 118.113 267.442 119.871C269.2 121.629 270.188 124.014 270.188 126.5ZM174.094 131.188H171.75C169.264 131.188 166.879 132.175 165.121 133.933C163.363 135.692 162.375 138.076 162.375 140.562V159.312H157.846C156.634 159.295 155.461 159.736 154.562 160.548C153.663 161.36 153.105 162.483 153 163.689C152.957 164.331 153.047 164.974 153.264 165.579C153.48 166.184 153.819 166.738 154.258 167.207C154.698 167.675 155.229 168.049 155.819 168.303C156.409 168.558 157.045 168.689 157.688 168.688H162.375V187.438C162.375 189.924 163.363 192.308 165.121 194.067C166.879 195.825 169.264 196.812 171.75 196.812H174.094C174.715 196.812 175.312 196.566 175.751 196.126C176.191 195.686 176.438 195.09 176.438 194.469V133.531C176.438 132.91 176.191 132.314 175.751 131.874C175.312 131.434 174.715 131.188 174.094 131.188ZM303 163.689C302.895 162.485 302.339 161.364 301.442 160.552C300.546 159.74 299.375 159.298 298.166 159.312H293.625V140.562C293.625 138.076 292.637 135.692 290.879 133.933C289.121 132.175 286.736 131.188 284.25 131.188H281.906C281.285 131.188 280.689 131.434 280.249 131.874C279.809 132.314 279.563 132.91 279.563 133.531V194.469C279.563 195.09 279.809 195.686 280.249 196.126C280.689 196.566 281.285 196.812 281.906 196.812H284.25C286.736 196.812 289.121 195.825 290.879 194.067C292.637 192.308 293.625 189.924 293.625 187.438V168.688H298.313C298.955 168.689 299.591 168.558 300.181 168.303C300.771 168.049 301.302 167.675 301.742 167.207C302.181 166.738 302.52 166.184 302.736 165.579C302.953 164.974 303.043 164.331 303 163.689Z" fill="white"/>
</g>
<path d="M125.462 289C125.116 289 124.821 288.896 124.578 288.688C124.336 288.445 124.214 288.133 124.214 287.752V253.9C124.214 253.519 124.336 253.207 124.578 252.964C124.821 252.721 125.116 252.6 125.462 252.6H152.71C153.092 252.6 153.404 252.721 153.646 252.964C153.889 253.207 154.01 253.519 154.01 253.9V287.752C154.01 288.099 153.889 288.393 153.646 288.636C153.404 288.879 153.092 289 152.71 289H148.03C147.684 289 147.389 288.879 147.146 288.636C146.904 288.393 146.782 288.099 146.782 287.752V259.1H131.442V287.752C131.442 288.099 131.321 288.393 131.078 288.636C130.87 288.879 130.576 289 130.194 289H125.462ZM186.224 289C185.877 289 185.582 288.879 185.34 288.636C185.097 288.393 184.976 288.099 184.976 287.752V259.1H173.692V265.652C173.692 269.812 173.466 273.365 173.016 276.312C172.6 279.259 171.906 281.651 170.936 283.488C169.965 285.291 168.648 286.643 166.984 287.544C165.32 288.411 163.24 288.879 160.744 288.948C160.397 288.983 160.085 288.879 159.808 288.636C159.565 288.359 159.444 288.047 159.444 287.7V283.8C159.444 283.072 159.842 282.656 160.64 282.552C161.68 282.379 162.564 281.893 163.292 281.096C164.054 280.299 164.678 279.172 165.164 277.716C165.684 276.26 166.065 274.457 166.308 272.308C166.55 270.124 166.672 267.593 166.672 264.716V253.848C166.672 253.501 166.793 253.207 167.036 252.964C167.278 252.721 167.573 252.6 167.92 252.6H190.904C191.285 252.6 191.597 252.721 191.84 252.964C192.082 253.207 192.204 253.519 192.204 253.9V287.752C192.204 288.099 192.082 288.393 191.84 288.636C191.597 288.879 191.285 289 190.904 289H186.224ZM198.099 289C197.822 289 197.562 288.896 197.319 288.688C197.111 288.48 197.007 288.22 197.007 287.908C197.007 287.769 197.042 287.613 197.111 287.44L209.643 253.9C209.747 253.553 209.938 253.259 210.215 253.016C210.527 252.739 210.943 252.6 211.463 252.6H217.131C217.651 252.6 218.05 252.739 218.327 253.016C218.605 253.259 218.813 253.553 218.951 253.9L231.483 287.44C231.518 287.613 231.535 287.769 231.535 287.908C231.535 288.22 231.431 288.48 231.223 288.688C231.015 288.896 230.773 289 230.495 289H225.971C225.486 289 225.122 288.896 224.879 288.688C224.671 288.445 224.533 288.22 224.463 288.012L222.019 281.668H206.575L204.131 288.012C204.062 288.22 203.906 288.445 203.663 288.688C203.455 288.896 203.109 289 202.623 289H198.099ZM208.395 275.688H220.199L214.271 259.62L208.395 275.688ZM237.638 289C237.291 289 236.997 288.896 236.754 288.688C236.511 288.445 236.39 288.133 236.39 287.752V253.9C236.39 253.519 236.511 253.207 236.754 252.964C236.997 252.721 237.291 252.6 237.638 252.6H242.37C242.751 252.6 243.046 252.721 243.254 252.964C243.497 253.207 243.618 253.519 243.618 253.9V267.316H258.958V253.9C258.958 253.519 259.079 253.207 259.322 252.964C259.565 252.721 259.859 252.6 260.206 252.6H264.886C265.267 252.6 265.579 252.721 265.822 252.964C266.065 253.207 266.186 253.519 266.186 253.9V287.752C266.186 288.099 266.065 288.393 265.822 288.636C265.579 288.879 265.267 289 264.886 289H260.206C259.859 289 259.565 288.879 259.322 288.636C259.079 288.393 258.958 288.099 258.958 287.752V273.816H243.618V287.752C243.618 288.099 243.497 288.393 243.254 288.636C243.046 288.879 242.751 289 242.37 289H237.638ZM275.521 289C275.174 289 274.879 288.879 274.637 288.636C274.394 288.393 274.273 288.099 274.273 287.752V253.9C274.273 253.519 274.394 253.207 274.637 252.964C274.879 252.721 275.174 252.6 275.521 252.6H298.401C298.782 252.6 299.094 252.721 299.337 252.964C299.579 253.207 299.701 253.519 299.701 253.9V257.332C299.701 257.679 299.579 257.973 299.337 258.216C299.094 258.459 298.782 258.58 298.401 258.58H281.293V267.784H297.257C297.638 267.784 297.95 267.905 298.193 268.148C298.435 268.356 298.557 268.651 298.557 269.032V272.256C298.557 272.637 298.435 272.949 298.193 273.192C297.95 273.4 297.638 273.504 297.257 273.504H281.293V283.02H298.817C299.198 283.02 299.51 283.141 299.753 283.384C299.995 283.627 300.117 283.939 300.117 284.32V287.752C300.117 288.099 299.995 288.393 299.753 288.636C299.51 288.879 299.198 289 298.817 289H275.521ZM307.868 289C307.522 289 307.227 288.879 306.984 288.636C306.742 288.393 306.62 288.099 306.62 287.752V253.9C306.62 253.519 306.742 253.207 306.984 252.964C307.227 252.721 307.522 252.6 307.868 252.6H321.804C324.508 252.6 326.866 253.033 328.876 253.9C330.887 254.732 332.447 256.015 333.556 257.748C334.666 259.447 335.22 261.579 335.22 264.144C335.22 266.744 334.666 268.893 333.556 270.592C332.447 272.256 330.887 273.504 328.876 274.336C326.866 275.168 324.508 275.584 321.804 275.584H314.056V287.752C314.056 288.099 313.935 288.393 313.692 288.636C313.484 288.879 313.19 289 312.808 289H307.868ZM313.952 269.812H321.544C323.555 269.812 325.098 269.344 326.172 268.408C327.247 267.437 327.784 266.016 327.784 264.144C327.784 262.411 327.282 261.024 326.276 259.984C325.271 258.909 323.694 258.372 321.544 258.372H313.952V269.812ZM65.5249 353C65.1782 353 64.8836 352.879 64.6409 352.636C64.3982 352.393 64.2769 352.099 64.2769 351.752V322.996H54.6569C54.3102 322.996 54.0156 322.875 53.7729 322.632C53.5302 322.389 53.4089 322.095 53.4089 321.748V317.9C53.4089 317.519 53.5302 317.207 53.7729 316.964C54.0156 316.721 54.3102 316.6 54.6569 316.6H81.1769C81.5582 316.6 81.8702 316.721 82.1129 316.964C82.3556 317.207 82.4769 317.519 82.4769 317.9V321.748C82.4769 322.095 82.3556 322.389 82.1129 322.632C81.8702 322.875 81.5582 322.996 81.1769 322.996H71.6089V351.752C71.6089 352.099 71.4876 352.393 71.2449 352.636C71.0022 352.879 70.6902 353 70.3089 353H65.5249ZM89.0013 353C88.6546 353 88.3599 352.879 88.1173 352.636C87.8746 352.393 87.7533 352.099 87.7533 351.752V317.9C87.7533 317.519 87.8746 317.207 88.1173 316.964C88.3599 316.721 88.6546 316.6 89.0013 316.6H102.937C105.641 316.6 107.999 317.033 110.009 317.9C112.02 318.732 113.58 320.015 114.689 321.748C115.799 323.447 116.353 325.579 116.353 328.144C116.353 330.744 115.799 332.893 114.689 334.592C113.58 336.256 112.02 337.504 110.009 338.336C107.999 339.168 105.641 339.584 102.937 339.584H95.1893V351.752C95.1893 352.099 95.0679 352.393 94.8253 352.636C94.6173 352.879 94.3226 353 93.9413 353H89.0013ZM95.0853 333.812H102.677C104.688 333.812 106.231 333.344 107.305 332.408C108.38 331.437 108.917 330.016 108.917 328.144C108.917 326.411 108.415 325.024 107.409 323.984C106.404 322.909 104.827 322.372 102.677 322.372H95.0853V333.812ZM123.279 353C122.932 353 122.637 352.879 122.395 352.636C122.152 352.393 122.031 352.099 122.031 351.752V317.9C122.031 317.519 122.152 317.207 122.395 316.964C122.637 316.721 122.932 316.6 123.279 316.6H146.159C146.54 316.6 146.852 316.721 147.095 316.964C147.337 317.207 147.459 317.519 147.459 317.9V321.332C147.459 321.679 147.337 321.973 147.095 322.216C146.852 322.459 146.54 322.58 146.159 322.58H129.051V331.784H145.015C145.396 331.784 145.708 331.905 145.951 332.148C146.193 332.356 146.315 332.651 146.315 333.032V336.256C146.315 336.637 146.193 336.949 145.951 337.192C145.708 337.4 145.396 337.504 145.015 337.504H129.051V347.02H146.575C146.956 347.02 147.268 347.141 147.511 347.384C147.753 347.627 147.875 347.939 147.875 348.32V351.752C147.875 352.099 147.753 352.393 147.511 352.636C147.268 352.879 146.956 353 146.575 353H123.279ZM155.626 353C155.28 353 154.985 352.896 154.742 352.688C154.5 352.445 154.378 352.133 154.378 351.752V317.9C154.378 317.519 154.5 317.207 154.742 316.964C154.985 316.721 155.28 316.6 155.626 316.6H160.358C160.74 316.6 161.034 316.721 161.242 316.964C161.485 317.207 161.606 317.519 161.606 317.9V331.316H176.946V317.9C176.946 317.519 177.068 317.207 177.31 316.964C177.553 316.721 177.848 316.6 178.194 316.6H182.874C183.256 316.6 183.568 316.721 183.81 316.964C184.053 317.207 184.174 317.519 184.174 317.9V351.752C184.174 352.099 184.053 352.393 183.81 352.636C183.568 352.879 183.256 353 182.874 353H178.194C177.848 353 177.553 352.879 177.31 352.636C177.068 352.393 176.946 352.099 176.946 351.752V337.816H161.606V351.752C161.606 352.099 161.485 352.393 161.242 352.636C161.034 352.879 160.74 353 160.358 353H155.626ZM193.509 353C193.162 353 192.868 352.879 192.625 352.636C192.382 352.393 192.261 352.081 192.261 351.7V317.9C192.261 317.519 192.382 317.207 192.625 316.964C192.868 316.721 193.18 316.6 193.561 316.6H198.241C198.622 316.6 198.917 316.721 199.125 316.964C199.368 317.207 199.489 317.519 199.489 317.9V341.768L216.597 317.432C216.736 317.259 216.926 317.085 217.169 316.912C217.412 316.704 217.724 316.6 218.105 316.6H222.421C222.768 316.6 223.062 316.721 223.305 316.964C223.548 317.207 223.669 317.519 223.669 317.9V351.752C223.669 352.099 223.548 352.393 223.305 352.636C223.062 352.879 222.768 353 222.421 353H217.741C217.36 353 217.048 352.879 216.805 352.636C216.562 352.393 216.441 352.099 216.441 351.752V328.352L199.385 352.168C199.281 352.307 199.108 352.48 198.865 352.688C198.622 352.896 198.293 353 197.877 353H193.509ZM233.017 353C232.67 353 232.376 352.879 232.133 352.636C231.89 352.393 231.769 352.099 231.769 351.752V317.9C231.769 317.519 231.89 317.207 232.133 316.964C232.376 316.721 232.67 316.6 233.017 316.6H246.953C249.657 316.6 252.014 317.033 254.025 317.9C256.036 318.732 257.596 320.015 258.705 321.748C259.814 323.447 260.369 325.579 260.369 328.144C260.369 330.744 259.814 332.893 258.705 334.592C257.596 336.256 256.036 337.504 254.025 338.336C252.014 339.168 249.657 339.584 246.953 339.584H239.205V351.752C239.205 352.099 239.084 352.393 238.841 352.636C238.633 352.879 238.338 353 237.957 353H233.017ZM239.101 333.812H246.693C248.704 333.812 250.246 333.344 251.321 332.408C252.396 331.437 252.933 330.016 252.933 328.144C252.933 326.411 252.43 325.024 251.425 323.984C250.42 322.909 248.842 322.372 246.693 322.372H239.101V333.812ZM280.034 353.52C276.949 353.52 274.297 353.017 272.078 352.012C269.86 350.972 268.126 349.395 266.878 347.28C265.63 345.131 264.954 342.461 264.85 339.272C264.816 337.781 264.798 336.308 264.798 334.852C264.798 333.396 264.816 331.905 264.85 330.38C264.954 327.225 265.648 324.591 266.93 322.476C268.213 320.361 269.964 318.767 272.182 317.692C274.436 316.617 277.053 316.08 280.034 316.08C283.016 316.08 285.633 316.617 287.886 317.692C290.14 318.767 291.908 320.361 293.19 322.476C294.473 324.591 295.166 327.225 295.27 330.38C295.34 331.905 295.374 333.396 295.374 334.852C295.374 336.308 295.34 337.781 295.27 339.272C295.166 342.461 294.49 345.131 293.242 347.28C291.994 349.395 290.244 350.972 287.99 352.012C285.772 353.017 283.12 353.52 280.034 353.52ZM280.034 347.54C282.288 347.54 284.125 346.881 285.546 345.564C286.968 344.212 287.73 342.028 287.834 339.012C287.904 337.487 287.938 336.083 287.938 334.8C287.938 333.483 287.904 332.079 287.834 330.588C287.765 328.577 287.384 326.948 286.69 325.7C286.032 324.417 285.13 323.499 283.986 322.944C282.842 322.355 281.525 322.06 280.034 322.06C278.578 322.06 277.278 322.355 276.134 322.944C274.99 323.499 274.072 324.417 273.378 325.7C272.72 326.948 272.356 328.577 272.286 330.588C272.252 332.079 272.234 333.483 272.234 334.8C272.234 336.083 272.252 337.487 272.286 339.012C272.39 342.028 273.153 344.212 274.574 345.564C275.996 346.881 277.816 347.54 280.034 347.54ZM303.45 353C303.104 353 302.809 352.879 302.566 352.636C302.324 352.393 302.202 352.099 302.202 351.752V317.9C302.202 317.519 302.324 317.207 302.566 316.964C302.809 316.721 303.104 316.6 303.45 316.6H318.53C321.338 316.6 323.626 317.033 325.394 317.9C327.162 318.732 328.462 319.893 329.294 321.384C330.161 322.875 330.594 324.608 330.594 326.584C330.594 327.901 330.352 329.063 329.866 330.068C329.416 331.039 328.844 331.836 328.15 332.46C327.492 333.084 326.833 333.569 326.174 333.916C327.526 334.54 328.722 335.58 329.762 337.036C330.802 338.492 331.322 340.225 331.322 342.236C331.322 344.316 330.854 346.171 329.918 347.8C328.982 349.429 327.596 350.712 325.758 351.648C323.921 352.549 321.65 353 318.946 353H303.45ZM309.43 347.488H318.114C319.986 347.488 321.408 346.985 322.378 345.98C323.349 344.94 323.834 343.692 323.834 342.236C323.834 340.711 323.332 339.445 322.326 338.44C321.356 337.435 319.952 336.932 318.114 336.932H309.43V347.488ZM309.43 331.524H317.594C319.432 331.524 320.801 331.091 321.702 330.224C322.638 329.323 323.106 328.161 323.106 326.74C323.106 325.284 322.638 324.157 321.702 323.36C320.801 322.528 319.432 322.112 317.594 322.112H309.43V331.524ZM351.839 353.52C348.754 353.52 346.102 353.017 343.883 352.012C341.664 350.972 339.931 349.395 338.683 347.28C337.435 345.131 336.759 342.461 336.655 339.272C336.62 337.781 336.603 336.308 336.603 334.852C336.603 333.396 336.62 331.905 336.655 330.38C336.759 327.225 337.452 324.591 338.735 322.476C340.018 320.361 341.768 318.767 343.987 317.692C346.24 316.617 348.858 316.08 351.839 316.08C354.82 316.08 357.438 316.617 359.691 317.692C361.944 318.767 363.712 320.361 364.995 322.476C366.278 324.591 366.971 327.225 367.075 330.38C367.144 331.905 367.179 333.396 367.179 334.852C367.179 336.308 367.144 337.781 367.075 339.272C366.971 342.461 366.295 345.131 365.047 347.28C363.799 349.395 362.048 350.972 359.795 352.012C357.576 353.017 354.924 353.52 351.839 353.52ZM351.839 347.54C354.092 347.54 355.93 346.881 357.351 345.564C358.772 344.212 359.535 342.028 359.639 339.012C359.708 337.487 359.743 336.083 359.743 334.8C359.743 333.483 359.708 332.079 359.639 330.588C359.57 328.577 359.188 326.948 358.495 325.7C357.836 324.417 356.935 323.499 355.791 322.944C354.647 322.355 353.33 322.06 351.839 322.06C350.383 322.06 349.083 322.355 347.939 322.944C346.795 323.499 345.876 324.417 345.183 325.7C344.524 326.948 344.16 328.577 344.091 330.588C344.056 332.079 344.039 333.483 344.039 334.8C344.039 336.083 344.056 337.487 344.091 339.012C344.195 342.028 344.958 344.212 346.379 345.564C347.8 346.881 349.62 347.54 351.839 347.54ZM375.255 353C374.909 353 374.614 352.896 374.371 352.688C374.129 352.445 374.007 352.133 374.007 351.752V317.9C374.007 317.519 374.129 317.207 374.371 316.964C374.614 316.721 374.909 316.6 375.255 316.6H379.987C380.369 316.6 380.663 316.721 380.871 316.964C381.114 317.207 381.235 317.519 381.235 317.9V331.316H385.759L394.235 317.536C394.409 317.259 394.634 317.033 394.911 316.86C395.223 316.687 395.622 316.6 396.107 316.6H401.255C401.602 316.6 401.862 316.704 402.035 316.912C402.243 317.12 402.347 317.38 402.347 317.692C402.347 317.865 402.278 318.073 402.139 318.316L392.311 334.176L403.075 351.232C403.179 351.336 403.231 351.527 403.231 351.804C403.231 352.116 403.11 352.393 402.867 352.636C402.659 352.879 402.382 353 402.035 353H396.679C396.229 353 395.882 352.896 395.639 352.688C395.431 352.48 395.258 352.289 395.119 352.116L386.019 337.816H381.235V351.752C381.235 352.099 381.114 352.393 380.871 352.636C380.663 352.879 380.369 353 379.987 353H375.255Z" fill="white"/>
<defs>
<clipPath id="clip0_423_1835">
<rect width="150" height="150" fill="white" transform="translate(153 89)"/>
</clipPath>
</defs>
</svg>
